<svg width="20" height="14" viewBox="0 0 20 14" fill="none" xmlns="http://www.w3.org/2000/svg">
<path fill-rule="evenodd" clip-rule="evenodd" d="M19.8701 6.49999C19.2301 5.38999 15.7101 -0.180006 9.73007 -6.38276e-06C4.20007 0.139994 1.00007 4.99999 0.130068 6.49999C-0.0485644 6.80939 -0.0485644 7.19059 0.130068 7.49999C0.760068 8.58999 4.13007 14 10.0201 14H10.2701C15.8001 13.86 19.0101 8.99999 19.8701 7.49999C20.0487 7.19059 20.0487 6.80939 19.8701 6.49999ZM10.0001 10.5C8.06707 10.5 6.50007 8.93299 6.50007 6.99999C6.50007 5.067 8.06707 3.49999 10.0001 3.49999C11.9331 3.49999 13.5001 5.067 13.5001 6.99999C13.5001 8.93299 11.9331 10.5 10.0001 10.5ZM10.0001 8.49999C10.8285 8.49999 11.5001 7.82842 11.5001 6.99999C11.5001 6.17157 10.8285 5.49999 10.0001 5.49999C9.17164 5.49999 8.50007 6.17157 8.50007 6.99999C8.50007 7.82842 9.17164 8.49999 10.0001 8.49999Z" fill="#434D56"/>
</svg>
